<?xml version="1.0" encoding="utf-8"?>
<!-- Generator: Adobe Illustrator 22.1.0, SVG Export Plug-In . SVG Version: 6.00 Build 0)  -->
<svg version="1.1" id="Layer_1" xmlns="http://www.w3.org/2000/svg" xmlns:xlink="http://www.w3.org/1999/xlink" x="0px" y="0px"
	 viewBox="0 0 140 28" style="enable-background:new 0 0 140 28;" xml:space="preserve">
<style type="text/css">
	.st0{fill:#FFFFFF;}
	.st1{fill-rule:evenodd;clip-rule:evenodd;fill:#FFFFFF;}
</style>
<g>
	<g>
		<line class="st0" x1="75.7" y1="0.6" x2="75.7" y2="23.2"/>
		<path class="st0" d="M75.7,23.4c-0.1,0-0.1-0.1-0.1-0.1V0.6c0-0.1,0.1-0.1,0.1-0.1s0.1,0.1,0.1,0.1v22.6
			C75.8,23.3,75.8,23.4,75.7,23.4z"/>
	</g>
	<path class="st1" d="M96.4,15.2c0.1,0.5,0.1,1.7,0.1,2.8v2.1c0,1.2,0,2.4-0.1,2.8h2.3c-0.1-0.5-0.1-1.7-0.1-2.8v-2.1
		c0-1.2,0-2.4,0.1-2.8H96.4z M98.6,14v-2l-2.1,0v2H98.6z"/>
	<path class="st1" d="M114.2,15.2c0.1,0.5,0.1,1.7,0.1,2.8v2.1c0,1.2,0,2.4-0.1,2.8h2.3c-0.1-0.5-0.1-1.7-0.1-2.8v-2.1
		c0-1.2,0-2.4,0.1-2.8H114.2z M116.4,14v-2l-2.1,0v2H116.4z"/>
	<path class="st1" d="M84.3,9.8c-1,0-1.7-1.5-1.7-4.1s0.7-4.1,1.7-4.1c1,0,1.7,1.5,1.7,4.1S85.3,9.8,84.3,9.8z M84.3,11.3
		c2.4,0,4.2-2.4,4.2-5.6S86.7,0,84.3,0c-2.4,0-4.2,2.4-4.2,5.6S81.8,11.3,84.3,11.3z"/>
	<path class="st0" d="M97.7,11.1c-0.1-0.5-0.1-1.6-0.1-2.8V0.2h-2.2c0.1,0.5,0.1,2.4,0.1,3v5c0,1.2,0,2.3-0.1,2.8H97.7z"/>
	<path class="st0" d="M106.5,0.2h-2.2c0.1,0.5,0.1,2.4,0.1,3v5c0,1.2,0,2.3-0.1,2.8h2.3c-0.1-0.5-0.1-1.6-0.1-2.8v-3
		c0-0.1,0-0.3,0.1-0.4c0.2-0.1,0.3-0.2,0.6-0.2c0.8,0,1,0.7,1,1.3v2.2c0,1.2,0,2.3-0.1,2.8h2.3c-0.1-0.5-0.1-1.6-0.1-2.8V6.1
		c0-1.4-0.4-2.9-2-2.9c-0.4,0-1.1,0.2-1.8,0.6V0.2z"/>
	<path class="st1" d="M115,7.2c0,1.6-0.3,2.6-1.1,2.6c-0.7,0-1.1-1.1-1.1-2.6c0-1.6,0.3-2.6,1.1-2.6C114.7,4.6,115,5.7,115,7.2z
		 M110.7,7.2c0,1.9,1.1,4,3.3,4s3.3-2.1,3.3-4c0-1.9-1.1-4-3.3-4S110.7,5.4,110.7,7.2z"/>
	<path class="st0" d="M119.3,3.4h-2c0.1,0.6,0.2,1.8,0.2,2.7v2.2c0,1.2,0,2.3-0.1,2.8h2.3c-0.1-0.5-0.1-1.6-0.1-2.8V6.1
		c0-0.4,0-0.6,0.2-0.8c0.2-0.3,0.5-0.5,0.9-0.5c0.6,0,0.8,0.5,0.8,1.1v2.4c0,1.2,0,2.3-0.1,2.8h2.3c-0.1-0.5-0.1-1.6-0.1-2.8V6.1
		c0-0.4,0-0.6,0.2-0.8c0.2-0.3,0.5-0.5,0.9-0.5c0.6,0,0.8,0.5,0.8,1.1v2.4c0,1.2,0,2.3-0.1,2.8h2.3c-0.1-0.5-0.1-1.6-0.1-2.8V6
		c0-1.9-0.6-2.8-2-2.8c-1,0-1.7,0.6-2.1,1c-0.2-0.3-0.7-1-1.7-1c-0.7,0-1.4,0.4-1.9,0.9L119.3,3.4z"/>
	<path class="st1" d="M131.5,9.4c-0.2,0.2-0.5,0.4-0.9,0.4c-0.5,0-0.9-0.4-0.9-1c0-1.1,1.1-1.6,1.8-1.7V9.4z M133.9,11.1
		c-0.2-0.6-0.3-1.5-0.3-2.4V6.7c0-0.7,0-1.8-0.8-2.6c-0.7-0.7-1.7-0.9-3.4-0.9c-0.3,0-0.8,0-1.1,0.1v1.4c1-0.2,3-0.4,3.1,1
		c-2.3,0.6-3.8,1.5-3.8,3.3c0,1.6,1.2,2.3,2.2,2.3c0.7,0,1.3-0.4,1.8-0.7c0,0.1,0.1,0.3,0.3,0.5H133.9z"/>
	<path class="st1" d="M101.7,9.4c-0.2,0.2-0.5,0.4-0.9,0.4c-0.5,0-0.9-0.4-0.9-1c0-1.1,1.1-1.6,1.8-1.7V9.4z M104.1,11.1
		c-0.2-0.6-0.3-1.5-0.3-2.4V6.7c0-0.7,0-1.8-0.8-2.6c-0.7-0.7-1.7-0.9-3.4-0.9c-0.3,0-0.8,0-1.1,0.1v1.4c1-0.2,3-0.4,3.1,1
		c-2.3,0.6-3.8,1.5-3.8,3.3c0,1.6,1.2,2.3,2.2,2.3c0.7,0,1.3-0.4,1.8-0.7c0,0.1,0.1,0.3,0.3,0.5H104.1z"/>
	<path class="st0" d="M90.9,0.2h-2.2c0.1,0.5,0.1,2.4,0.1,3v5c0,1.2,0,2.3-0.1,2.8h2.2c-0.1-0.7-0.1-1.8-0.1-2.5l0.7-0.9
		c0.6,1.2,1,2.5,1.4,3.5h2.4c-1-1.8-1.9-4.1-2.3-5.2c0.6-0.7,1.7-2.1,2.1-2.6l-1.8,0c-0.9,1-1.6,1.9-2.5,3h0V0.2z"/>
	<path class="st0" d="M90.9,12C91,13,91,14.7,91,17.5c0,2.8,0,4.5-0.1,5.5h2.5c-0.1-1-0.1-3.5-0.1-4.7h0.6c0.7,0,1.6,0,2.3,0.1v-1.8
		c-0.7,0.1-1.5,0.1-2.3,0.1h-0.6c0-1.8,0-2.2,0-3.1c0.3,0,0.3,0,0.6,0c1.1,0,1.7,0.1,2.3,0.2V12H90.9z"/>
	<path class="st1" d="M103.1,20.9c-0.2,0.4-0.5,0.6-0.9,0.6c-0.7,0-1.3-0.8-1.3-2.1c0-1.7,0.7-3,1.6-3c0.2,0,0.4,0.1,0.4,0.1
		c0.1,0.1,0.1,0.1,0.1,0.4V20.9z M103.1,15.1c-0.2,0-0.5-0.1-0.7-0.1c-2.3,0-3.5,2.4-3.5,4.7c0,2.1,1,3.4,2.6,3.4
		c0.8,0,1.3-0.4,1.8-0.8c0.1,0.2,0.1,0.5,0.1,0.6h2c-0.3-0.8-0.4-5.5-0.4-6.5s0-2.2,0.1-4.4H103c0,0.4,0.1,1.2,0.1,1.5V15.1z"/>
	<path class="st1" d="M107.5,18.7c0-0.1,0-0.2,0-0.4c0-1,0.3-2,1.1-2c0.6,0,0.9,0.6,0.9,1.2c0,0.3-0.1,0.5-0.7,0.7L107.5,18.7z
		 M111.5,18.7c-0.1-1-0.3-2.1-0.7-2.6c-0.4-0.6-1.2-1.1-2.1-1.1c-2.2,0-3.4,2-3.4,4.1c0,2.3,1.5,3.9,3.3,3.9c1.2,0,2.2-0.6,2.9-1.4
		l-0.7-0.8c-0.5,0.4-1,0.7-1.6,0.7c-0.8,0-1.4-0.7-1.5-1.6L111.5,18.7z"/>
	<path class="st0" d="M113.9,22.9c-0.1-0.5-0.1-1.7-0.1-2.8V12h-2.2c0.1,0.5,0.1,2.4,0.1,3.1v5c0,1.2,0,2.4-0.1,2.8H113.9z"/>
	<path class="st0" d="M117.5,12.9c0,0.2,0.1,0.6,0.1,1.1v1.2h-0.8v1.4h0.8v3.7c0,1.7,0.2,2.7,1.7,2.7c0.5,0,1.1-0.1,1.6-0.3v-1.3
		c-0.2,0-0.4,0.1-0.6,0.1c-0.5,0-0.7-0.3-0.7-1.4v-3.6h1.3v-1.4h-1.3v-1.1c0-0.6,0.1-1.2,0.1-1.2H117.5z"/>
	<path class="st0" d="M125.1,15.2h1.8c-0.7,3-1.1,6-2.2,8.2c-0.8,1.6-1.9,2.4-3.3,2.3c-0.2,0-0.4-0.1-0.5-0.1v-1.5
		c0.1,0,0.4,0.1,0.6,0.1c0.9,0,1.4-1.1,1.4-1.5c0-0.1,0-0.2-0.5-1.6c-1.1-2.9-1.7-5.2-1.8-5.9h2.3c0.2,1,0.6,3,1.3,4.8h0
		C124.5,18.5,124.9,16.6,125.1,15.2z"/>
	<path class="st1" d="M106.8,24.9h0.3c0.3,0,0.7,0,0.7,0.4c0,0.3-0.3,0.4-0.7,0.4h-0.3V24.9z M106.8,26.4h0.3c0.3,0,0.7,0,0.7,0.5
		c0,0.4-0.4,0.4-0.8,0.4h-0.3V26.4z M105.8,28h1.6c0.7,0,1.5-0.2,1.5-1.1c0-0.5-0.3-0.7-0.8-0.8v0c0.4-0.1,0.7-0.4,0.7-0.9
		c0-0.7-0.5-1-1.2-1h-1.7V28z"/>
	<path class="st1" d="M111.3,26.5h-0.9l0.5-1.5h0L111.3,26.5z M108.8,28h1l0.3-0.8h1.4l0.3,0.8h1.1l-1.5-3.8h-1.2L108.8,28z"/>
	<polygon class="st0" points="113,28 114,28 113.9,25.4 114,25.4 115.3,28 116.5,28 116.5,24.2 115.6,24.2 115.6,26.8 115.6,26.8 
		114.3,24.2 113,24.2 	"/>
	<polygon class="st0" points="117,28 118,28 118,26.3 118.1,26.3 119.2,28 120.5,28 119,26 120.4,24.2 119.2,24.2 118.1,25.8 
		118,25.8 118,24.2 117,24.2 	"/>
	<path class="st0" d="M6.1,15.1L6.6,15c0.9-0.1,0.9-0.5,0.9-2.1l0-8.2c0-1.6,0-2-0.9-2.1L6.1,2.5V1.9l10.2,0l0.3,3.7l-1,0.1
		c-0.8-2.3-0.9-2.8-3.1-2.8h-1.2l0,5.3h0.7c1.7,0,2.1,0,2.2-0.9l0.1-0.7h0.8l0,4.2h-0.8L14.1,10C14,9,13.7,9,11.9,9l-0.7,0l0,3.8
		c0,2,0.1,2,1.3,2.1l0.4,0.1v0.6l-6.8,0V15.1z"/>
	<path class="st0" d="M16.1,15.1l0.3-0.1c0.8-0.1,0.9-0.4,0.9-1.4l0-3.7c0-1.6,0-2.6-0.6-2.6h-0.6l-0.1-0.6l4.7-0.8l0,7.7
		c0,1,0,1.3,0.9,1.4l0.3,0.1l0,0.6l-5.8,0V15.1z"/>
	<path class="st1" d="M28.4,7.6c-0.3-0.4-0.4-0.8-1.5-0.8c-1.1,0-2,1.4-2,3.3c0,2,1,4.4,2.6,4.4c0.3,0,0.6-0.1,0.9-0.2L28.4,7.6z
		 M28.5,15c-0.5,0.3-1.4,1-2.9,1c-2.3,0-4.3-1.9-4.3-4.8c0-4.1,3.5-5.4,5.5-5.4c1,0,1.4,0,1.6,0.1V4.6c0-1.6,0-2.6-0.6-2.6h-0.6
		l-0.1-0.6l4.7-0.8l0,12.9c0,0.5,0.2,0.6,0.8,0.8l0.5,0.1v0.5l-3.9,1L28.5,15z"/>
	<path class="st0" d="M42.1,15l0.3-0.1c0.8-0.1,0.9-0.4,0.9-1.4l0-9c0-1.6,0-2.6-0.6-2.6h-0.6l-0.1-0.6l4.7-0.8l0,12.9
		c0,1,0,1.3,0.9,1.4l0.3,0.1v0.6l-5.8,0V15z"/>
	<path class="st0" d="M48,15l0.3-0.1c0.8-0.1,0.9-0.4,0.9-1.4l0-3.7c0-1.6,0-2.6-0.6-2.6H48l-0.1-0.6l4.7-0.8l0,7.7
		c0,1,0,1.3,0.9,1.4l0.3,0.1v0.6l-5.8,0V15z"/>
	<path class="st1" d="M37.3,20.1c0.7,0,1-0.2,1-0.6c0-0.5-0.3-0.6-0.9-0.6H36v1.2L37.3,20.1z M37.6,22.2c0.7,0,1-0.2,1-0.7
		c0-0.4-0.4-0.6-1.1-0.6H36l0,1.3L37.6,22.2z M34.8,22.1v-3.2c0-0.5-0.1-0.7-0.4-0.9l2.8,0c1.6,0,2.4,0.3,2.4,1.2
		c0,0.5-0.3,0.9-0.9,1.1c0.9,0.1,1.3,0.5,1.3,1.2c0,1.1-0.8,1.5-2.5,1.5l-3,0C34.7,22.9,34.8,22.6,34.8,22.1z"/>
	<path class="st1" d="M44.7,21.1l-1.1-2.3l-1,2.3L44.7,21.1z M47,23h-1.9c0.1-0.1,0.2-0.3,0.2-0.4c0-0.1,0-0.2-0.1-0.3L45.1,22h-2.9
		l-0.1,0.2c0,0.1-0.1,0.2-0.1,0.3c0,0.2,0.1,0.4,0.2,0.5l-1.9,0c0.3-0.3,0.4-0.6,0.6-0.9l1.8-3.7c0.1-0.1,0.1-0.2,0.1-0.2
		c0,0,0-0.1-0.1-0.2h2.1c0,0.1-0.1,0.1-0.1,0.2c0,0,0,0.1,0.1,0.2l1.6,3.7C46.6,22.5,46.8,22.8,47,23z"/>
	<path class="st0" d="M49.3,22.1c0,0.5,0.1,0.7,0.4,0.9h-2c0.3-0.1,0.4-0.4,0.4-0.9l0-3.2c0-0.5-0.1-0.7-0.4-0.9h2.4
		c0,0.1,0,0.1,0,0.1c0,0,0,0.1,0.1,0.2l1.9,3.8l0-3.2c0-0.5-0.1-0.7-0.4-0.9l1.9,0c-0.4,0.2-0.4,0.5-0.4,0.9v0v3.7
		c0,0.2,0,0.3,0.1,0.4l-2,0c0-0.1,0.1-0.1,0.1-0.2c0,0,0-0.1-0.1-0.2l-2.1-3.9L49.3,22.1z"/>
	<path class="st0" d="M56.6,23h-2.1c0.3-0.1,0.4-0.4,0.4-0.9v-3.2c0-0.5-0.1-0.7-0.4-0.9h2.1c-0.3,0.2-0.4,0.4-0.4,0.9l0,1.4
		l1.9-1.6c0.2-0.2,0.3-0.3,0.3-0.5c0-0.1-0.1-0.1-0.2-0.2l2.4,0c-0.4,0.2-0.6,0.4-0.9,0.6L58.2,20l1.9,2.3c0.2,0.3,0.5,0.5,0.8,0.7
		c0,0-1.6,0.1-2.4-0.8l-1.2-1.5l-1,0.8v0.6C56.2,22.6,56.3,22.8,56.6,23z"/>
	<path class="st0" d="M61.3,14.9c-0.6,0.4-1.6,1.1-3.9,1.1c-0.3,0-2.6,0-2.6-3l0-5.9l-1.6-0.3V6.3l1.6-0.1V4.9l3.4-1.8v3h2.1V7
		l-2.1,0l0,3.5c0,2.2,0,4,1.9,4c0.4,0,0.8-0.1,1-0.2L61.3,14.9z"/>
	<rect x="17.8" y="1.9" class="st0" width="2.7" height="2.7"/>
	<rect x="49.4" y="1.9" class="st0" width="2.7" height="2.7"/>
	<path class="st1" d="M37.5,6.8c-1.1,0-1.3,1.4-1.3,2.5c0,0.4,0,0.7,0,1.1l2.8-0.8C39,8.7,38.7,6.8,37.5,6.8z M36.5,11.4
		c0.2,1.3,0.8,3,3.4,3.1c1.2,0,1.9-0.4,2.3-0.5l0.1,0.5C41.7,15,40.3,16,38,16c-3,0-5.4-1.7-5.4-5c0-3.5,2.4-5.2,5.4-5.2
		c3.4,0,4.1,2.5,4.2,3.9L36.5,11.4z"/>
	<path class="st0" d="M67.3,6.1v0.6l0.9,0.1c0.4,0.1,0.6,0.2,0.6,0.5c0,0.2-0.1,0.6-0.3,1l-1.3,3.8h0l-1.7-4.5
		c-0.1-0.2-0.1-0.3-0.1-0.4c0-0.2,0.1-0.4,0.6-0.5l0.6-0.1V6.1l-7.4,0V7c2.3,0,2.2,0.5,2.7,1.3l3.1,6.4c0.3,0.6,0.5,1,0.5,1.5
		c0,1.1-1.6,2-3.3,1.8l0,3.1c2.7,0,3.6-2.9,4.5-4.9L70,8.4c0.5-1.1,0.5-1.4,1.3-1.6l0.4-0.1V6.1L67.3,6.1z"/>
</g>
</svg>
