<?xml version="1.0" standalone="no"?>
<!DOCTYPE svg PUBLIC "-//W3C//DTD SVG 20010904//EN"
 "http://www.w3.org/TR/2001/REC-SVG-20010904/DTD/svg10.dtd">
<svg version="1.0" xmlns="http://www.w3.org/2000/svg"
 width="700.000000pt" height="700.000000pt" viewBox="0 0 700.000000 700.000000"
 preserveAspectRatio="xMidYMid meet">
<metadata>
Created by potrace 1.11, written by Peter Selinger 2001-2013
</metadata>
<g transform="translate(0.000000,700.000000) scale(0.100000,-0.100000)"
fill="#000000" stroke="none">
<path d="M1710 5755 c0 -76 4 -107 13 -109 6 -2 62 -11 122 -20 204 -30 275
-87 313 -246 16 -70 17 -199 17 -1880 0 -1671 -1 -1810 -17 -1879 -41 -173
-103 -218 -353 -254 l-90 -12 -3 -108 -3 -107 1171 0 1171 0 -3 107 -3 108
-90 12 c-187 26 -288 45 -329 63 -75 32 -116 85 -143 185 -24 90 -34 457 -31
1130 l3 660 190 3 c228 3 531 -12 600 -31 106 -29 163 -80 190 -169 11 -39 55
-326 55 -363 0 -3 65 -5 145 -5 l145 0 -2 728 -3 727 -142 3 -141 3 -6 -38
c-3 -21 -10 -81 -16 -133 -25 -206 -58 -291 -133 -334 -82 -48 -163 -57 -539
-63 l-348 -6 0 908 0 907 363 -5 c389 -5 461 -13 594 -62 80 -30 164 -90 223
-160 65 -78 151 -268 236 -519 l77 -228 46 6 c25 3 103 11 174 17 104 10 127
15 127 28 0 9 -20 288 -45 619 -25 332 -45 608 -45 613 0 5 -702 9 -1745 9
l-1745 0 0 -105z"/>
</g>
</svg>
